<?xml version="1.0" encoding="UTF-8" standalone="no"?>
<!-- Created with Inkscape (http://www.inkscape.org/) -->

<svg
   width="512"
   height="512"
   viewBox="0 0 512 512"
   version="1.1"
   id="svg1"
   sodipodi:docname="rustytime-big.svg"
   inkscape:version="1.4.2 (ebf0e940d0, 2025-05-08)"
   inkscape:export-filename="16-rustytime.svg"
   inkscape:export-xdpi="3"
   inkscape:export-ydpi="3"
   xmlns:inkscape="http://www.inkscape.org/namespaces/inkscape"
   xmlns:sodipodi="http://sodipodi.sourceforge.net/DTD/sodipodi-0.dtd"
   xmlns="http://www.w3.org/2000/svg"
   xmlns:svg="http://www.w3.org/2000/svg">
  <sodipodi:namedview
     id="namedview1"
     pagecolor="#ffffff"
     bordercolor="#000000"
     borderopacity="0.25"
     inkscape:showpageshadow="2"
     inkscape:pageopacity="0.0"
     inkscape:pagecheckerboard="0"
     inkscape:deskcolor="#d1d1d1"
     inkscape:document-units="px"
     inkscape:zoom="1"
     inkscape:cx="98.5"
     inkscape:cy="313.5"
     inkscape:window-width="1920"
     inkscape:window-height="1008"
     inkscape:window-x="0"
     inkscape:window-y="0"
     inkscape:window-maximized="1"
     inkscape:current-layer="layer1" />
  <defs
     id="defs1">
    <inkscape:path-effect
       effect="fillet_chamfer"
       id="path-effect11"
       is_visible="true"
       lpeversion="1"
       nodesatellites_param="F,0,0,1,0,0,0,1 @ F,0,0,1,0,0,0,1 @ F,0,0,1,0,0,0,1 @ F,0,0,1,0,0,0,1 @ F,0,0,1,0,0,0,1 @ F,0,0,1,0,0,0,1 @ F,0,0,1,0,0,0,1 @ F,0,0,1,0,0,0,1"
       radius="0"
       unit="px"
       method="auto"
       mode="F"
       chamfer_steps="1"
       flexible="false"
       use_knot_distance="true"
       apply_no_radius="true"
       apply_with_radius="true"
       only_selected="false"
       hide_knots="false" />
    <inkscape:path-effect
       effect="fillet_chamfer"
       id="path-effect10"
       is_visible="true"
       lpeversion="1"
       nodesatellites_param="F,0,0,1,0,0,0,1 @ F,0,0,1,0,0,0,1 @ F,0,0,1,0,0,0,1 @ F,0,0,1,0,0,0,1"
       radius="0"
       unit="px"
       method="auto"
       mode="F"
       chamfer_steps="1"
       flexible="false"
       use_knot_distance="true"
       apply_no_radius="true"
       apply_with_radius="true"
       only_selected="false"
       hide_knots="false" />
  </defs>
  <g
     inkscape:label="Layer 1"
     inkscape:groupmode="layer"
     id="layer1">
    <path
       id="rect10"
       style="display:inline;stroke-width:1.16363"
       d="m 237.38182,0 c -2.57862,0 -4.65454,2.0759271 -4.65454,4.6545454 V 36.136364 a 221.09091,221.09091 0 0 0 -43.05455,8.956818 L 177.11819,16.220456 c -1.02824,-2.364747 -3.76027,-3.439586 -6.125,-2.411363 l -34.14774,14.847725 c -2.3648,1.028222 -3.43959,3.760252 -2.41134,6.125001 l 12.55226,28.870455 A 221.09091,221.09091 0 0 0 116.9909,84.077276 L 94.727276,61.815909 c -1.823358,-1.823357 -4.758473,-1.823357 -6.581821,0 L 61.815909,88.145455 c -1.823357,1.823348 -1.823357,4.758463 0,6.581821 L 84.077276,116.98864 A 221.09091,221.09091 0 0 0 61.779545,150.36137 L 32.693181,138.31365 c -2.382332,-0.98681 -5.095023,0.13583 -6.081816,2.51816 l -14.25,34.40228 c -0.986795,2.38234 0.138121,5.09503 2.520453,6.08181 l 29.086364,12.04775 a 221.09091,221.09091 0 0 0 -7.831818,39.36363 H 4.6545454 C 2.0759271,232.72728 0,234.8032 0,237.38182 v 37.23636 c 0,2.57862 2.0759271,4.65455 4.6545454,4.65455 H 36.136364 a 221.09091,221.09091 0 0 0 7.831818,39.36364 L 14.881818,330.6841 c -2.382332,0.98678 -3.507248,3.69946 -2.520453,6.08182 l 14.25,34.40226 c 0.986793,2.38233 3.699484,3.50499 6.081816,2.51819 l 29.086364,-12.04774 a 221.09091,221.09091 0 0 0 22.297731,33.37273 l -22.261367,22.26136 c -1.823357,1.82336 -1.823357,4.75846 0,6.58184 l 26.329546,26.32954 c 1.823348,1.82334 4.758463,1.82334 6.581821,0 l 22.261364,-22.26137 a 221.09091,221.09091 0 0 0 29.99773,20.425 l -12.55226,28.87046 c -1.02825,2.36474 0.0465,5.09677 2.41134,6.125 l 34.14774,14.84772 c 2.36473,1.02822 5.09677,-0.0466 6.125,-2.41135 l 12.55454,-28.87273 a 221.09091,221.09091 0 0 0 43.05455,8.95681 v 31.48181 c 0,2.57861 2.07592,4.65455 4.65454,4.65455 h 37.23636 c 2.57862,0 4.65455,-2.07594 4.65455,-4.65455 v -31.48181 a 221.09091,221.09091 0 0 0 43.05454,-8.95681 l 12.55454,28.87273 c 1.02824,2.36477 3.76025,3.43957 6.12501,2.41135 l 34.14773,-14.84772 c 2.36479,-1.02823 3.43958,-3.76027 2.41136,-6.125 l -12.55456,-28.87046 a 221.09091,221.09091 0 0 0 29.99776,-20.425 l 22.26361,22.26137 c 1.82336,1.82334 4.75846,1.82334 6.58184,0 l 26.32954,-26.32954 c 1.82334,-1.82338 1.82334,-4.75848 0,-6.58184 l -22.26137,-22.26361 a 221.09091,221.09091 0 0 0 22.29772,-33.37048 l 29.08636,12.04774 c 2.38235,0.9868 5.09504,-0.13586 6.08182,-2.51819 l 14.25,-34.40226 c 0.9868,-2.38236 -0.13809,-5.09504 -2.52045,-6.08182 l -29.08636,-12.04773 a 221.09091,221.09091 0 0 0 7.83182,-39.36364 h 31.48181 c 2.57861,0 4.65455,-2.07593 4.65455,-4.65455 v -37.23636 c 0,-2.57862 -2.07594,-4.65454 -4.65455,-4.65454 h -31.48181 a 221.09091,221.09091 0 0 0 -7.83182,-39.36363 l 29.08636,-12.04775 c 2.38236,-0.98678 3.50725,-3.69946 2.52045,-6.08181 l -14.25,-34.40228 c -0.98678,-2.38231 -3.69947,-3.50497 -6.08182,-2.51816 l -29.08636,12.04772 A 221.09091,221.09091 0 0 0 427.92273,116.98864 L 450.1841,94.727276 c 1.82334,-1.823358 1.82334,-4.758473 0,-6.581821 L 423.85456,61.815909 c -1.82338,-1.823357 -4.75848,-1.823357 -6.58184,0 L 395.00911,84.077276 A 221.09091,221.09091 0 0 0 365.01363,63.652274 l 12.55228,-28.870455 c 1.02822,-2.364749 -0.0466,-5.096779 -2.41136,-6.125001 L 341.00682,13.809093 c -2.36475,-1.028223 -5.09677,0.04661 -6.12501,2.411363 L 322.32727,45.093182 A 221.09091,221.09091 0 0 0 279.27273,36.136364 V 4.6545454 C 279.27273,2.0759271 277.1968,0 274.61818,0 Z M 256,69.818185 A 186.18181,186.18181 0 0 1 442.18181,256 186.18181,186.18181 0 0 1 256,442.18181 186.18181,186.18181 0 0 1 69.818185,256 186.18181,186.18181 0 0 1 256,69.818185 Z" />
    <circle
       style="display:inline;fill:#000000;stroke-width:1.16363"
       id="path12"
       cx="255.99997"
       cy="255.99997"
       r="34.909096" />
    <rect
       style="display:inline;fill:#000000;stroke-width:0.745462"
       id="rect12"
       width="11.636363"
       height="162.61125"
       x="250.18184"
       y="255.99997"
       rx="4.6545453"
       ry="1.9102694" />
    <rect
       style="display:inline;fill:#000000;stroke-width:0.656855"
       id="rect13"
       width="33.30685"
       height="132.32477"
       x="-16.916208"
       y="237.83379"
       rx="4.4409127"
       ry="1.5544798"
       transform="matrix(0.70975689,-0.7044467,0.70975689,0.7044467,0,0)" />
    <rect
       style="display:inline;fill:#000000;stroke-width:0.688452"
       id="rect13-6"
       width="23.272728"
       height="138.69026"
       x="-374.3172"
       y="9.645113"
       rx="4.6545453"
       ry="1.6292589"
       transform="rotate(-135)" />
  </g>
</svg>
